<svg xmlns="http://www.w3.org/2000/svg" viewBox="0 0 512 512">
  <g fill="none" stroke="#ffffff" stroke-width="28" stroke-linecap="round" stroke-linejoin="round">
    <path d="M92 322V207c0-26 12-47 36-63 21-14 38-37 48-68 29 25 55 33 80 22 31-13 57-38 77-76 20 38 46 63 77 76 25 11 51 3 80-22 10 31 27 54 48 68 24 16 36 37 36 63v115" transform="translate(-77 0)"/>
    <path d="M92 348c72-24 127-18 164 18 37-36 92-42 164-18-67 9-122 35-164 76-42-41-97-67-164-76z"/>
  </g>
  <path d="M231 86c-34 9-56 36-56 69 0 37 30 67 67 67 23 0 43-11 55-29-10 5-21 8-33 8-41 0-74-33-74-74 0-17 6-32 15-44 8-4 17-7 26-8z" fill="#fff"/>
</svg>
